# xmcd
#
# Track frame offsets:
# 150
# 17462
# 33775
# 51093
# 65202
# 82818
# 102671
# 121768
#
# Disc length: 1782 seconds
#
# Revision: 0
# Processed by: cddbd v1.5.2PL0 Copyright (c) Steve Scherf et al.
# Submitted via: Audion 3.0.2 (http://www.panic.com/audion/)
#
DISCID=5c06f408
DTITLE=Camera Obscura Morning Becomes Electric 2006 - Camera Obscura Morning Becomes Electric 2006
DYEAR=1900
DGENRE=
TTITLE0=1
TTITLE1=2
TTITLE2=3
TTITLE3=4
TTITLE4=5
TTITLE5=6
TTITLE6=7
TTITLE7=8
EXTD=
EXTT0=
EXTT1=
EXTT2=
EXTT3=
EXTT4=
EXTT5=
EXTT6=
EXTT7=
PLAYORDER=
